<?xml version="1.0" encoding="UTF-8" standalone="no"?>
<!-- Created with Inkscape (http://www.inkscape.org/) -->

<svg
   xmlns:dc="http://purl.org/dc/elements/1.1/"
   xmlns:cc="http://creativecommons.org/ns#"
   xmlns:rdf="http://www.w3.org/1999/02/22-rdf-syntax-ns#"
   xmlns:svg="http://www.w3.org/2000/svg"
   xmlns="http://www.w3.org/2000/svg"
   xmlns:sodipodi="http://sodipodi.sourceforge.net/DTD/sodipodi-0.dtd"
   xmlns:inkscape="http://www.inkscape.org/namespaces/inkscape"
   width="210mm"
   height="297mm"
   viewBox="0 0 744.09448819 1052.3622047"
   id="svg2"
   version="1.1"
   inkscape:version="0.91 r13725"
   sodipodi:docname="X.svg">
  <defs
     id="defs4" />
  <sodipodi:namedview
     id="base"
     pagecolor="#ffffff"
     bordercolor="#666666"
     borderopacity="1.0"
     inkscape:pageopacity="0.0"
     inkscape:pageshadow="2"
     inkscape:zoom="0.49497475"
     inkscape:cx="341.86651"
     inkscape:cy="437.97952"
     inkscape:document-units="px"
     inkscape:current-layer="layer1"
     showgrid="false"
     inkscape:window-width="1920"
     inkscape:window-height="1017"
     inkscape:window-x="-8"
     inkscape:window-y="-8"
     inkscape:window-maximized="1" />
  <metadata
     id="metadata7">
    <rdf:RDF>
      <cc:Work
         rdf:about="">
        <dc:format>image/svg+xml</dc:format>
        <dc:type
           rdf:resource="http://purl.org/dc/dcmitype/StillImage" />
      </cc:Work>
    </rdf:RDF>
  </metadata>
  <g
     inkscape:label="Ebene 1"
     inkscape:groupmode="layer"
     id="layer1">
    <path
       style="fill:#ff0000;fill-opacity:1;fill-rule:evenodd;stroke:none;stroke-width:1px;stroke-linecap:butt;stroke-linejoin:miter;stroke-opacity:1"
       d="m 175.37153,293.43087 c 4.00122,-22.8295 35.81244,-39.01725 56.3656,-32.88783 52.767,15.73633 31.78969,140.12081 85.20381,152.99988 65.19988,15.7208 100.52803,-132.96716 166.47513,-121.54197 23.04974,3.99332 50.81091,35.96758 43.25731,60.05603 -9.34172,29.79078 -126.81114,46.81299 -140.25857,114.39243 -12.92327,64.94532 91.83115,111.32831 77.33885,175.87836 -4.52821,20.16904 -34.72501,47.21885 -48.50064,32.88783 C 388.05364,646.91963 369.47883,538.5836 307.3812,522.83778 277.4113,515.23844 162.58005,639.62811 136.0467,650.9072 c -21.54673,9.15933 -32.84808,-45.89918 -26.21655,-70.06536 17.93388,-65.35359 140.61296,-49.35117 154.67768,-115.82233 13.55388,-64.05694 -107.22031,-68.40768 -89.1363,-171.58864 z"
       id="path4140"
       inkscape:connector-curvature="0"
       sodipodi:nodetypes="sssssssssssss"
       inkscape:export-xdpi="26.740887"
       inkscape:export-ydpi="26.740887" />
  </g>
</svg>
